<svg width="832" height="489" viewBox="0 0 832 489" fill="none" xmlns="http://www.w3.org/2000/svg">
<rect width="832" height="489" fill="#191B2D"/>
<path d="M310.521 234.56H318.753L323.289 251.752H323.681L329.113 234.56H336.673L342.161 251.752H342.553L347.033 234.56H355.153L346.361 262H338.465L332.977 244.696H332.585L327.097 262H319.313L310.521 234.56ZM370.941 233.664C373.069 233.664 375.01 234.037 376.765 234.784C378.557 235.493 380.087 236.501 381.357 237.808C382.663 239.077 383.671 240.608 384.38 242.4C385.127 244.192 385.501 246.152 385.501 248.28C385.501 250.408 385.127 252.368 384.38 254.16C383.671 255.952 382.663 257.501 381.357 258.808C380.087 260.077 378.557 261.085 376.765 261.832C375.01 262.541 373.069 262.896 370.941 262.896C368.813 262.896 366.853 262.541 365.061 261.832C363.306 261.085 361.775 260.077 360.469 258.808C359.199 257.501 358.191 255.952 357.445 254.16C356.735 252.368 356.381 250.408 356.381 248.28C356.381 246.152 356.735 244.192 357.445 242.4C358.191 240.608 359.199 239.077 360.469 237.808C361.775 236.501 363.306 235.493 365.061 234.784C366.853 234.037 368.813 233.664 370.941 233.664ZM370.941 256.12C371.874 256.12 372.77 255.952 373.629 255.616C374.525 255.243 375.309 254.72 375.981 254.048C376.653 253.376 377.175 252.555 377.549 251.584C377.959 250.613 378.165 249.512 378.165 248.28C378.165 247.048 377.959 245.947 377.549 244.976C377.175 244.005 376.653 243.184 375.981 242.512C375.309 241.84 374.525 241.336 373.629 241C372.77 240.627 371.874 240.44 370.941 240.44C369.97 240.44 369.055 240.627 368.197 241C367.338 241.336 366.573 241.84 365.901 242.512C365.229 243.184 364.687 244.005 364.277 244.976C363.903 245.947 363.717 247.048 363.717 248.28C363.717 249.512 363.903 250.613 364.277 251.584C364.687 252.555 365.229 253.376 365.901 254.048C366.573 254.72 367.338 255.243 368.197 255.616C369.055 255.952 369.97 256.12 370.941 256.12ZM389.941 221.904H397.277V243.744H397.613L406.797 234.56H415.869V235.008L405.677 244.92L416.709 261.552V262H408.029L400.525 249.96L397.277 253.152V262H389.941V221.904Z" fill="white"/>
<path d="M281.92 251.383L275.224 249.739L276.66 255.354L281.622 263.06L298.529 272.965L288.249 255.018L281.92 251.383Z" fill="white"/>
<path d="M273.181 272.002C266.866 272.89 260.432 271.748 254.807 268.741C249.183 265.735 244.66 261.019 241.89 255.276C239.121 249.532 238.248 243.056 239.399 236.784C240.549 230.512 243.663 224.767 248.291 220.38C252.919 215.992 258.822 213.188 265.147 212.372C271.472 211.557 277.893 212.772 283.482 215.842C289.072 218.912 293.541 223.679 296.245 229.454C298.949 235.229 299.748 241.714 298.526 247.973L285.647 245.459C286.336 241.93 285.885 238.274 284.361 235.017C282.836 231.761 280.316 229.073 277.164 227.342C274.012 225.61 270.392 224.925 266.825 225.385C263.258 225.845 259.93 227.426 257.32 229.9C254.711 232.374 252.955 235.614 252.306 239.15C251.657 242.687 252.149 246.338 253.711 249.577C255.273 252.816 257.823 255.475 260.995 257.17C264.166 258.866 267.794 259.51 271.355 259.009L273.181 272.002Z" fill="white"/>
<rect x="263.297" y="239.328" width="9" height="9" rx="4.5" transform="rotate(-15 263.297 239.328)" fill="white"/>
<path d="M455.86 247.932C457.324 248.196 458.548 248.916 459.532 250.092C460.54 251.268 461.044 252.648 461.044 254.232C461.044 255.528 460.732 256.692 460.108 257.724C459.508 258.732 458.596 259.536 457.372 260.136C456.172 260.712 454.708 261 452.98 261H444.952V235.728H452.836C455.356 235.728 457.252 236.316 458.524 237.492C459.82 238.644 460.468 240.144 460.468 241.992C460.468 243.6 460.036 244.908 459.172 245.916C458.308 246.9 457.204 247.572 455.86 247.932ZM446.572 247.212H452.908C454.804 247.212 456.256 246.768 457.264 245.88C458.296 244.968 458.812 243.72 458.812 242.136C458.812 240.6 458.308 239.388 457.3 238.5C456.292 237.612 454.768 237.168 452.728 237.168H446.572V247.212ZM452.872 259.596C454.912 259.596 456.508 259.116 457.66 258.156C458.836 257.172 459.424 255.828 459.424 254.124C459.424 252.444 458.824 251.112 457.624 250.128C456.448 249.12 454.828 248.616 452.764 248.616H446.572V259.596H452.872ZM482.324 241.452V261H480.704V256.752C480.152 258.24 479.228 259.38 477.932 260.172C476.66 260.94 475.196 261.324 473.54 261.324C471.212 261.324 469.304 260.616 467.816 259.2C466.352 257.76 465.62 255.636 465.62 252.828V241.452H467.204V252.72C467.204 255.048 467.792 256.836 468.968 258.084C470.144 259.308 471.74 259.92 473.756 259.92C475.868 259.92 477.548 259.248 478.796 257.904C480.068 256.56 480.704 254.568 480.704 251.928V241.452H482.324ZM494.745 261.288C492.561 261.288 490.773 260.808 489.381 259.848C488.013 258.888 487.245 257.52 487.077 255.744H488.733C488.853 257.016 489.429 258.024 490.461 258.768C491.517 259.512 492.945 259.884 494.745 259.884C496.233 259.884 497.409 259.512 498.273 258.768C499.161 258 499.605 257.064 499.605 255.96C499.605 255.192 499.365 254.568 498.885 254.088C498.429 253.584 497.853 253.2 497.157 252.936C496.461 252.672 495.513 252.384 494.313 252.072C492.873 251.688 491.709 251.316 490.821 250.956C489.933 250.572 489.177 250.008 488.553 249.264C487.929 248.52 487.617 247.524 487.617 246.276C487.617 245.364 487.893 244.524 488.445 243.756C488.997 242.964 489.765 242.34 490.749 241.884C491.733 241.428 492.849 241.2 494.097 241.2C496.137 241.2 497.781 241.716 499.029 242.748C500.301 243.756 500.985 245.16 501.081 246.96H499.461C499.389 245.664 498.885 244.608 497.949 243.792C497.013 242.976 495.717 242.568 494.061 242.568C492.669 242.568 491.517 242.928 490.605 243.648C489.693 244.368 489.237 245.244 489.237 246.276C489.237 247.188 489.489 247.932 489.993 248.508C490.521 249.06 491.157 249.492 491.901 249.804C492.669 250.092 493.677 250.404 494.925 250.74C496.293 251.1 497.385 251.46 498.201 251.82C499.041 252.156 499.749 252.66 500.325 253.332C500.901 253.98 501.189 254.856 501.189 255.96C501.189 256.968 500.913 257.88 500.361 258.696C499.809 259.512 499.041 260.148 498.057 260.604C497.073 261.06 495.969 261.288 494.745 261.288ZM506.952 237.096C506.568 237.096 506.244 236.976 505.98 236.736C505.716 236.472 505.584 236.124 505.584 235.692C505.584 235.284 505.716 234.948 505.98 234.684C506.244 234.42 506.568 234.288 506.952 234.288C507.336 234.288 507.66 234.42 507.924 234.684C508.188 234.948 508.32 235.284 508.32 235.692C508.32 236.124 508.188 236.472 507.924 236.736C507.66 236.976 507.336 237.096 506.952 237.096ZM507.744 241.452V261H506.124V241.452H507.744ZM522.502 241.056C524.83 241.056 526.726 241.776 528.19 243.216C529.654 244.632 530.386 246.744 530.386 249.552V261H528.802V249.66C528.802 247.332 528.214 245.556 527.038 244.332C525.862 243.084 524.266 242.46 522.25 242.46C520.138 242.46 518.446 243.132 517.174 244.476C515.926 245.82 515.302 247.812 515.302 250.452V261H513.682V241.452H515.302V245.592C515.854 244.128 516.766 243.012 518.038 242.244C519.334 241.452 520.822 241.056 522.502 241.056ZM553.716 249.912C553.716 250.776 553.692 251.424 553.644 251.856H536.76C536.808 253.608 537.192 255.084 537.912 256.284C538.632 257.484 539.58 258.384 540.756 258.984C541.932 259.584 543.216 259.884 544.608 259.884C546.528 259.884 548.136 259.416 549.432 258.48C550.728 257.52 551.544 256.224 551.88 254.592H553.572C553.188 256.584 552.204 258.204 550.62 259.452C549.036 260.676 547.032 261.288 544.608 261.288C542.784 261.288 541.152 260.88 539.712 260.064C538.272 259.248 537.144 258.084 536.328 256.572C535.512 255.036 535.104 253.248 535.104 251.208C535.104 249.168 535.5 247.392 536.292 245.88C537.108 244.368 538.236 243.216 539.676 242.424C541.116 241.608 542.76 241.2 544.608 241.2C546.48 241.2 548.1 241.608 549.468 242.424C550.86 243.216 551.916 244.284 552.636 245.628C553.356 246.948 553.716 248.376 553.716 249.912ZM552.096 250.524C552.168 248.796 551.856 247.332 551.16 246.132C550.488 244.932 549.564 244.044 548.388 243.468C547.212 242.868 545.94 242.568 544.572 242.568C543.204 242.568 541.932 242.868 540.756 243.468C539.604 244.044 538.656 244.932 537.912 246.132C537.192 247.332 536.808 248.796 536.76 250.524H552.096ZM565.128 261.288C562.944 261.288 561.156 260.808 559.764 259.848C558.396 258.888 557.628 257.52 557.46 255.744H559.116C559.236 257.016 559.812 258.024 560.844 258.768C561.9 259.512 563.328 259.884 565.128 259.884C566.616 259.884 567.792 259.512 568.656 258.768C569.544 258 569.988 257.064 569.988 255.96C569.988 255.192 569.748 254.568 569.268 254.088C568.812 253.584 568.236 253.2 567.54 252.936C566.844 252.672 565.896 252.384 564.696 252.072C563.256 251.688 562.092 251.316 561.204 250.956C560.316 250.572 559.56 250.008 558.936 249.264C558.312 248.52 558 247.524 558 246.276C558 245.364 558.276 244.524 558.828 243.756C559.38 242.964 560.148 242.34 561.132 241.884C562.116 241.428 563.232 241.2 564.48 241.2C566.52 241.2 568.164 241.716 569.412 242.748C570.684 243.756 571.368 245.16 571.464 246.96H569.844C569.772 245.664 569.268 244.608 568.332 243.792C567.396 242.976 566.1 242.568 564.444 242.568C563.052 242.568 561.9 242.928 560.988 243.648C560.076 244.368 559.62 245.244 559.62 246.276C559.62 247.188 559.872 247.932 560.376 248.508C560.904 249.06 561.54 249.492 562.284 249.804C563.052 250.092 564.06 250.404 565.308 250.74C566.676 251.1 567.768 251.46 568.584 251.82C569.424 252.156 570.132 252.66 570.708 253.332C571.284 253.98 571.572 254.856 571.572 255.96C571.572 256.968 571.296 257.88 570.744 258.696C570.192 259.512 569.424 260.148 568.44 260.604C567.456 261.06 566.352 261.288 565.128 261.288ZM583.023 261.288C580.839 261.288 579.051 260.808 577.659 259.848C576.291 258.888 575.523 257.52 575.355 255.744H577.011C577.131 257.016 577.707 258.024 578.739 258.768C579.795 259.512 581.223 259.884 583.023 259.884C584.511 259.884 585.687 259.512 586.551 258.768C587.439 258 587.883 257.064 587.883 255.96C587.883 255.192 587.643 254.568 587.163 254.088C586.707 253.584 586.131 253.2 585.435 252.936C584.739 252.672 583.791 252.384 582.591 252.072C581.151 251.688 579.987 251.316 579.099 250.956C578.211 250.572 577.455 250.008 576.831 249.264C576.207 248.52 575.895 247.524 575.895 246.276C575.895 245.364 576.171 244.524 576.723 243.756C577.275 242.964 578.043 242.34 579.027 241.884C580.011 241.428 581.127 241.2 582.375 241.2C584.415 241.2 586.059 241.716 587.307 242.748C588.579 243.756 589.263 245.16 589.359 246.96H587.739C587.667 245.664 587.163 244.608 586.227 243.792C585.291 242.976 583.995 242.568 582.339 242.568C580.947 242.568 579.795 242.928 578.883 243.648C577.971 244.368 577.515 245.244 577.515 246.276C577.515 247.188 577.767 247.932 578.271 248.508C578.799 249.06 579.435 249.492 580.179 249.804C580.947 250.092 581.955 250.404 583.203 250.74C584.571 251.1 585.663 251.46 586.479 251.82C587.319 252.156 588.027 252.66 588.603 253.332C589.179 253.98 589.467 254.856 589.467 255.96C589.467 256.968 589.191 257.88 588.639 258.696C588.087 259.512 587.319 260.148 586.335 260.604C585.351 261.06 584.247 261.288 583.023 261.288Z" fill="white"/>
<path d="M432.8 250.192C432.075 250.192 431.477 249.957 431.008 249.488C430.539 249.019 430.304 248.421 430.304 247.696C430.304 246.971 430.539 246.373 431.008 245.904C431.477 245.435 432.075 245.2 432.8 245.2C433.483 245.2 434.059 245.435 434.528 245.904C434.997 246.373 435.232 246.971 435.232 247.696C435.232 248.421 434.997 249.019 434.528 249.488C434.059 249.957 433.483 250.192 432.8 250.192Z" fill="white"/>
</svg>
